<svg viewBox="0 0 24 24" fill="none" xmlns="http://www.w3.org/2000/svg" xmlns:xlink="http://www.w3.org/1999/xlink">
<path d="M12.71 14.1924L3.10059 9.92188L14.3115 2.98145L12.71 14.1924Z" fill="#41A5EE" stroke="#41A5EE" stroke-width="1.5"/>
<path d="M12.3164 15.6592L9.89844 20.9775L3.61328 11.791L12.3164 15.6592Z" stroke="#185ABD" stroke-width="1.5"/>
<path d="M21.2783 13.96L14.1855 14.4668L15.7051 3.82812L21.2783 13.96Z" stroke="#2B7CD3" stroke-width="1.5"/>
<path d="M11.752 20.5264L13.8105 15.9971L19.5742 15.585L11.752 20.5264Z" stroke="#103F91" stroke-width="1.5" stroke-linejoin="miter" stroke-miterlimit="6"/>
<path d="M10.5016 13.1181L11.3534 12.0276C11.392 12.2085 11.4566 12.3815 11.5472 12.5466C11.6379 12.7116 11.7469 12.8582 11.8744 12.9864C12.0019 13.1145 12.1392 13.2111 12.2863 13.2763C12.3685 13.3154 12.4575 13.3382 12.5484 13.3433C12.6273 13.3456 12.696 13.329 12.7547 13.2936C12.8134 13.2582 12.8564 13.2096 12.8837 13.1481C12.916 13.0822 12.9253 13.0075 12.9103 12.9357C12.8931 12.8657 12.8645 12.7991 12.8256 12.7385C12.7849 12.6733 12.7398 12.6134 12.6903 12.5587L12.2936 12.0819C12.1352 11.8989 11.9985 11.6981 11.8862 11.4837C11.7866 11.2881 11.7313 11.0895 11.7202 10.8881C11.7128 10.6687 11.7578 10.4508 11.8515 10.2523C11.9365 10.0531 12.0612 9.87319 12.2179 9.72364C12.3648 9.58538 12.5408 9.48184 12.733 9.42066C12.9261 9.35887 13.1342 9.33745 13.3572 9.35639C13.5801 9.3754 13.8114 9.43799 14.051 9.54417C14.3145 9.66095 14.543 9.80828 14.7365 9.98617C14.9201 10.1523 15.0806 10.3423 15.214 10.551L14.4009 11.6094C14.3517 11.4524 14.282 11.3048 14.1917 11.1666C14.1015 11.0283 14.0004 10.9078 13.8884 10.8049C13.7829 10.7063 13.6619 10.6258 13.5304 10.5664C13.4482 10.53 13.3728 10.5108 13.3039 10.509C13.242 10.5055 13.1803 10.5197 13.1261 10.55C13.0765 10.5789 13.0376 10.623 13.015 10.6757C12.9928 10.7235 12.9852 10.7768 12.9933 10.8289C13.0015 10.8797 13.0229 10.9331 13.0573 10.9893C13.0918 11.0455 13.1366 11.1084 13.1918 11.1779L13.6467 11.7173C13.7545 11.8448 13.8512 11.9812 13.9359 12.125C14.0182 12.2648 14.083 12.4141 14.1288 12.5697C14.1746 12.7251 14.1921 12.8865 14.1815 13.0538C14.1668 13.2366 14.1198 13.4154 14.0427 13.5819C13.9308 13.8472 13.7456 14.0751 13.5089 14.2389C13.2773 14.3963 13.0124 14.4836 12.714 14.5008C12.3897 14.5129 12.0672 14.4468 11.7737 14.3082C11.58 14.2226 11.397 14.1147 11.2283 13.9867C11.0599 13.8588 10.9135 13.7202 10.7892 13.571C10.6728 13.4341 10.576 13.2817 10.5016 13.1181Z" fill="white"/>
<path d="M8.5301 7.72325L7.67887 8.8263C7.613 8.56742 7.49478 8.32479 7.3315 8.11339C7.16558 7.89654 6.95087 7.72972 6.68737 7.61294C6.49911 7.52951 6.31185 7.48543 6.12558 7.48071C5.94426 7.4751 5.76365 7.5057 5.5943 7.57072C5.42446 7.63676 5.26965 7.73631 5.1391 7.86344C4.99836 8.00125 4.88599 8.16531 4.80834 8.34633C4.72628 8.52613 4.679 8.71985 4.669 8.91724C4.65977 9.09832 4.68829 9.27934 4.75275 9.44881C4.81743 9.61555 4.91515 9.76748 5.04005 9.89548C5.17234 10.031 5.32981 10.1393 5.50362 10.2145C5.60633 10.26 5.70927 10.2934 5.81245 10.3146C5.91566 10.3357 6.01649 10.3415 6.11492 10.3319L6.40611 9.67484L5.58477 9.31083L5.96699 8.44839L7.8407 9.2788L6.84649 11.5221C6.54875 11.5828 6.24301 11.5936 5.94173 11.5542C5.61899 11.5155 5.30705 11.4295 5.0059 11.296C4.65679 11.1413 4.35687 10.9357 4.10615 10.6792C3.85544 10.4227 3.66442 10.1354 3.53311 9.81724C3.40179 9.49906 3.33643 9.16608 3.33702 8.81831C3.33764 8.47048 3.41379 8.12545 3.56545 7.78323C3.71863 7.4376 3.92423 7.14692 4.18224 6.91119C4.43505 6.67859 4.73186 6.49895 5.05518 6.38286C5.3791 6.26643 5.72027 6.21496 6.07868 6.22844C6.43709 6.24193 6.79256 6.32679 7.14509 6.48302C7.44272 6.61353 7.71778 6.79036 7.96006 7.00694C8.19881 7.22124 8.38883 7.46001 8.5301 7.72325Z" fill="#185ABD"/>
<path d="M9.14062 13.0137L7.89319 12.4608L9.46987 8.90325L8.44312 8.44821L8.91406 7.38559L12.2099 8.84624L11.7389 9.90887L10.7173 9.4561L9.14062 13.0137Z" fill="white"/>
</svg>
